# xmcd
#
# Track frame offsets:
#	150
#	6858
#	33988
#	59984
#	91264
#	122025
#	130406
#	159617
#	186287
#	212238
#	243720
#	253482
#	281798
#
# Disc length: 4136 seconds
#
# Revision: 1
# Processed by: cddbd v1.5.2PL0 Copyright (c) Steve Scherf et al.
# Submitted via: audiograbber 1.83.01
#
DISCID=cf10260d
DTITLE=Cradle Of Filth - Hammer Of The Witches
DYEAR=2015
DGENRE=Metal
TTITLE0=Walpurgis Eve
TTITLE1=Yours Immortally
TTITLE2=Enshrined In Crematoria
TTITLE3=Deflowering The Maidenhead, Displeasuring The Goddess
TTITLE4=Blackest Magick In Practice
TTITLE5=The Monstrous Sabbat (Summoning The Coven)
TTITLE6=Hammer Of The Witches
TTITLE7=Right Wing Of The Garden Triptych
TTITLE8=The Vampyre At My Side
TTITLE9=Onward Christian Soldiers
TTITLE10=Blooding The Hounds Of Hell
TTITLE11=King Of The Woods
TTITLE12=Misericord
EXTD=
EXTT0=
EXTT1=
EXTT2=
EXTT3=
EXTT4=
EXTT5=
EXTT6=
EXTT7=
EXTT8=
EXTT9=
EXTT10=
EXTT11=
EXTT12=
PLAYORDER=
